<svg width="45" height="43" viewBox="0 0 45 43" fill="none" xmlns="http://www.w3.org/2000/svg">
<g id="logo 1">
<g clip-path="url(#clip0)">
<g id="Camada 2">
<g id="Camada 1">
<path id="Vector" d="M33.7822 26.3202C33.7822 38.5975 20.8259 46.6295 9.60814 41.3392C8.94921 41.0047 8.19484 40.903 7.46969 41.051C3.77451 41.729 1.13697 38.9447 2.01615 35.3152C2.21446 34.5029 1.8575 33.9624 1.57656 33.3498C-2.52186 24.3253 1.65258 14.0658 10.8311 10.5936C13.3974 9.6071 16.1684 9.25849 18.902 9.5782C21.6356 9.89791 24.2486 10.8762 26.5127 12.4276C28.7768 13.979 30.6232 16.0564 31.8904 18.4781C33.1576 20.8998 33.8071 23.5923 33.7822 26.3202ZM25.4697 38.0537L25.8002 37.7785L26.1506 37.5034C26.7323 37.3789 27.0595 36.9105 27.4396 36.5207C32.4635 31.5351 33.1575 23.9912 29.1583 17.9704C25.4499 12.3461 17.7752 9.94827 11.4392 12.5852C6.45831 14.6554 3.2622 18.2718 2.41938 23.7029L2.31362 24.5906C1.91537 25.7054 1.91537 26.9219 2.31362 28.0366C2.34997 30.1134 3.17627 31.9445 4.18104 33.6938C4.54792 34.326 4.69004 34.7616 4.25706 35.4364C3.6423 36.4028 3.80095 37.4248 4.58758 38.2797C5.37421 39.1347 6.47153 39.4328 7.41351 38.8366C8.35548 38.2404 8.94711 38.6073 9.72713 39.02C15.1564 41.883 20.404 41.5609 25.4697 38.0537Z" fill="#3E3731"/>
<path id="Vector_2" d="M45 13.2534C42.1906 13.5515 40.267 15.078 38.307 16.6012C36.4198 18.0654 33.0452 17.5184 31.5711 15.684C31.0984 15.0944 31.6239 14.9109 31.9016 14.6685C32.9824 13.7579 34.2416 13.1028 35.6959 12.3559C33.412 11.8744 31.5942 12.9816 29.5979 13.2436C33.931 7.28513 39.9927 7.73062 45 13.2534Z" fill="#2F9554"/>
<path id="Vector_3" d="M26.6397 10.8098C24.303 7.89442 24.2633 6.91171 26.4679 4.20271C27.4419 2.9804 28.0908 1.53535 28.3551 0C30.4605 2.008 31.9908 4.01927 31.7396 6.87895C31.538 9.13263 30.2391 10.7181 28.1833 12.2151C28.603 10.4822 29.3401 9.17194 29.0856 7.51444C28.1833 8.62817 27.7932 9.9319 26.6397 10.8098Z" fill="#2F9554"/>
<path id="Vector_4" d="M26.1671 37.5034C26.1043 36.9334 26.4976 36.619 26.8579 36.2717C31.0356 31.9937 31.2472 24.322 27.9354 19.4576C23.4668 12.8767 14.2387 11.6647 8.26295 15.8609C5.84477 17.5045 4.02519 19.8764 3.07382 22.6252C2.93169 23.0445 2.85898 23.4736 2.41278 23.7029C3.26221 18.2718 6.45832 14.6554 11.4392 12.5852C17.7752 9.96466 25.4333 12.3461 29.1748 17.9803C33.1741 24.001 32.48 31.5449 27.4561 36.5305C27.076 36.9105 26.7488 37.3789 26.1671 37.5034Z" fill="#F55D16"/>
<path id="Vector_5" d="M27.9354 19.4576C23.4668 12.8768 14.2387 11.6647 8.26294 15.8609C5.84477 17.5045 4.02518 19.8764 3.07381 22.6252C2.93169 23.0445 2.85898 23.4736 2.41278 23.7029L2.31362 24.5906C1.91538 25.7054 1.91538 26.9219 2.31362 28.0366C2.34998 30.1134 3.17627 31.9445 4.18105 33.6938C4.54792 34.326 4.69005 34.7616 4.25707 35.4364C3.64231 36.4028 3.80095 37.4248 4.58759 38.2797C5.37422 39.1347 6.47154 39.4328 7.41351 38.8366C8.35549 38.2404 8.94712 38.6073 9.72714 39.02C15.1675 41.883 20.4205 41.5554 25.4862 38.0373L25.8167 37.7622L26.1671 37.487C26.1043 36.917 26.4976 36.6026 26.8579 36.2554C31.0356 31.9937 31.2472 24.322 27.9354 19.4576Z" fill="#FF9D43"/>
<path id="Vector_6" d="M25.4697 38.0537L25.8002 37.7785L25.4697 38.0537Z" fill="#FF9D43"/>
</g>
</g>
</g>
</g>
<defs>
<clipPath id="clip0">
<rect width="45" height="43" fill="white"/>
</clipPath>
</defs>
</svg>
